<?xml version="1.0" encoding="utf-8"?>
<!-- Generator: Adobe Illustrator 19.1.1, SVG Export Plug-In . SVG Version: 6.00 Build 0)  -->
<svg version="1.1" id="Layer_1" xmlns="http://www.w3.org/2000/svg" xmlns:xlink="http://www.w3.org/1999/xlink" x="0px" y="0px"
	 viewBox="-47 170.9 500 500" style="enable-background:new -47 170.9 500 500;" xml:space="preserve">
<style type="text/css">
	.st0{fill:#FCFCFC;}
</style>
<g>
	<path class="st0" d="M203,302.5c-65.4,0-118.4,53-118.4,118.4c0,65.4,53,118.4,118.4,118.4c65.4,0,118.4-53,118.4-118.4
		C321.4,355.5,268.4,302.5,203,302.5z M203,512.7c-50.6,0-91.8-41.2-91.8-91.8c0-50.6,41.2-91.8,91.8-91.8
		c50.6,0,91.8,41.2,91.8,91.8C294.8,471.5,253.6,512.7,203,512.7z"/>
	<path class="st0" d="M203,254.3c7.2,0,13.1-6,13.1-13.3v-56.8c0-7.3-5.9-13.3-13.1-13.3s-13.1,6-13.1,13.3V241
		C189.9,248.3,195.8,254.3,203,254.3z"/>
	<path class="st0" d="M349.7,292.8l19.8-19.8c5.2-5.2,5.2-13.6,0.1-18.7c-5.1-5.1-13.5-5.1-18.7,0.1l-19.8,19.8
		c-5.2,5.2-5.2,13.6-0.1,18.7C336.1,298,344.5,298,349.7,292.8z"/>
	<path class="st0" d="M349.7,549c-5.2-5.2-13.6-5.2-18.7-0.1c-5.1,5.1-5.1,13.5,0.1,18.7l19.8,19.8c5.2,5.2,13.6,5.2,18.7,0.1
		c5.1-5.1,5.1-13.5-0.1-18.7L349.7,549z"/>
	<path class="st0" d="M56.3,549l-19.8,19.8c-5.2,5.2-5.2,13.6-0.1,18.7c5.1,5.1,13.5,5,18.7-0.1l19.8-19.8
		c5.2-5.2,5.2-13.6,0.1-18.7C69.9,543.8,61.5,543.8,56.3,549z"/>
	<path class="st0" d="M56.3,292.8c5.2,5.2,13.6,5.2,18.7,0.1c5.1-5.1,5.1-13.5-0.1-18.7l-19.8-19.8c-5.2-5.2-13.6-5.2-18.7-0.1
		c-5.1,5.1-5.1,13.5,0.1,18.7L56.3,292.8z"/>
	<path class="st0" d="M439.7,407.8l-56.8,0c-7.3,0-13.3,5.9-13.3,13.1c0,7.2,6,13.1,13.3,13.1h56.8c7.3,0,13.3-5.9,13.3-13.1
		C453,413.7,447,407.8,439.7,407.8z"/>
	<path class="st0" d="M203,587.5c-7.2,0-13.1,6-13.1,13.3v56.8c0,7.3,5.9,13.3,13.1,13.3c7.2,0,13.1-6,13.1-13.3v-56.8
		C216.1,593.5,210.2,587.5,203,587.5z"/>
	<path class="st0" d="M23.1,407.8h-56.8c-7.3,0-13.3,5.9-13.3,13.1c0,7.2,6,13.1,13.3,13.1h56.8c7.3,0,13.3-5.9,13.3-13.1
		C36.4,413.7,30.4,407.8,23.1,407.8z"/>
</g>
</svg>
