<?xml version="1.0" encoding="utf-8"?>
<!-- Generator: Adobe Illustrator 19.1.1, SVG Export Plug-In . SVG Version: 6.00 Build 0)  -->
<svg version="1.1" id="Layer_1" xmlns="http://www.w3.org/2000/svg" xmlns:xlink="http://www.w3.org/1999/xlink" x="0px" y="0px"
	 viewBox="-47 170.9 500 500" style="enable-background:new -47 170.9 500 500;" xml:space="preserve">
<style type="text/css">
	.st0{fill:#FCFCFC;}
</style>
<g>
	<path class="st0" d="M259.9,447.9c-9.9,0-19.6,1.6-28.8,4.9c-18.9-45.5-64.2-76.4-114.2-76.4c-62.3,0-114.8,46.9-122.5,108
		c-25,12.1-41.4,37.7-41.4,65.9c0,40.4,32.8,73.2,73.2,73.2h233.7c48.4,0,87.8-39.4,87.8-87.8C347.7,487.3,308.3,447.9,259.9,447.9z
		 M259.9,601H26.2c-28,0-50.7-22.7-50.7-50.7c0-21.2,13.4-40.3,33.3-47.6l6.9-2.5l0.5-7.3c3.6-52.7,47.9-94,100.8-94
		c44.4,0,84.2,29.7,96.8,72.1l3.9,13.1l12.1-6.3c9.4-4.9,19.6-7.4,30.2-7.4c36,0,65.3,29.3,65.3,65.3S295.9,601,259.9,601z"/>
	<path class="st0" d="M241.1,352.3c42.9,0,77.8,34.9,77.8,77.8c0,8-1.2,15.7-3.5,23c7.9,2.1,14.6,7.2,18.9,14
		c4.6-11.5,7.1-23.9,7.1-37c0-55.4-44.9-100.3-100.3-100.3c-31.4,0-59.4,14.4-77.8,37c8.2,0.9,15.4,4.9,20.5,10.8
		C198.1,362.1,218.5,352.3,241.1,352.3z"/>
	<path class="st0" d="M241.1,289c6.1,0,11.1-5.1,11.1-11.3v-48.2c0-6.2-5-11.3-11.1-11.3c-6.1,0-11.1,5.1-11.1,11.3v48.2
		C230,283.9,235,289,241.1,289z"/>
	<path class="st0" d="M391,280.3c-4.3-4.3-11.5-4.3-15.8,0.1l-34.1,34.1c-4.4,4.4-4.4,11.5-0.1,15.8c4.3,4.3,11.4,4.3,15.8-0.1
		l34.1-34.1C395.2,291.8,395.3,284.7,391,280.3z"/>
	<path class="st0" d="M441.7,419l-48.2,0c-6.2,0-11.3,5-11.3,11.1s5.1,11.1,11.3,11.1h48.2c6.2,0,11.3-5,11.3-11.1
		C453,424,447.9,419,441.7,419z"/>
	<path class="st0" d="M125.5,330.2c4.4,4.4,11.5,4.4,15.8,0.1c4.3-4.3,4.3-11.5-0.1-15.8l-34.1-34.1c-4.4-4.4-11.5-4.4-15.8-0.1
		c-4.3,4.3-4.3,11.5,0.1,15.8L125.5,330.2z"/>
</g>
</svg>
