<?xml version="1.0" encoding="utf-8"?>
<!-- Generator: Adobe Illustrator 19.1.1, SVG Export Plug-In . SVG Version: 6.00 Build 0)  -->
<svg version="1.1" id="Layer_1" xmlns="http://www.w3.org/2000/svg" xmlns:xlink="http://www.w3.org/1999/xlink" x="0px" y="0px"
	 viewBox="-47 170.9 500 500" style="enable-background:new -47 170.9 500 500;" xml:space="preserve">
<style type="text/css">
	.st0{fill:#FCFCFC;}
</style>
<path class="st0" d="M341.8,355c-12.3,0-24.8,2.2-36.4,6.2c-23.9-57.7-81.3-96.8-144.7-96.8c-79,0-145.5,59.4-155.3,136.9
	C-26.3,416.7-47,449.1-47,484.8c0,51.2,41.7,92.7,92.7,92.7h296c61.3,0,111.3-49.9,111.3-111.3C453.1,404.9,403.2,355,341.8,355z
	 M341.8,548.9h-296c-35.4,0-64.3-28.8-64.3-64.3c0-26.8,16.9-51.1,42.2-60.2l8.6-3.2l0.6-9.3c4.6-66.7,60.8-119,127.7-119
	c56.1,0,106.7,37.6,122.7,91.4l5,16.6l15.4-8c11.9-6.2,24.8-9.4,38.2-9.4c45.6,0,82.7,37.1,82.7,82.7
	C424.5,511.8,387.4,548.9,341.8,548.9z"/>
</svg>
