<?xml version="1.0" encoding="utf-8"?>
<!-- Generator: Adobe Illustrator 19.1.1, SVG Export Plug-In . SVG Version: 6.00 Build 0)  -->
<svg version="1.1" id="Layer_1" xmlns="http://www.w3.org/2000/svg" xmlns:xlink="http://www.w3.org/1999/xlink" x="0px" y="0px"
	 viewBox="-47 170.9 500 500" style="enable-background:new -47 170.9 500 500;" xml:space="preserve">
<style type="text/css">
	.st0{fill:#FCFCFC;}
</style>
<g>
	<path class="st0" d="M343.5,286.9c-12.4,0-24.4,2-35.9,6.1c-23.6-56.8-80.1-95.3-142.4-95.3c-77.8,0-143.3,58.5-152.9,134.8
		c-31.2,15.1-51.6,47.1-51.6,82.2c0,50.4,41,91.3,91.3,91.3h291.5c60.4,0,109.5-49.1,109.5-109.5C453,336,403.9,286.9,343.5,286.9z
		 M343.5,477.9H52c-34.9,0-63.2-28.4-63.2-63.2c0-26.4,16.7-50.2,41.5-59.3l8.6-3.1l0.6-9.1c4.5-65.8,59.7-117.3,125.7-117.3
		c55.3,0,105,37,120.8,90l4.9,16.3l15.1-7.9c11.8-6.1,24.4-9.3,37.6-9.3c44.9,0,81.4,36.5,81.4,81.4
		C424.9,441.3,388.4,477.9,343.5,477.9z"/>
	<path class="st0" d="M48.1,529.3l-91,91c-5.5,5.5-5.5,14.3-0.1,19.8c5.4,5.4,14.3,5.3,19.7-0.1l91-91c5.5-5.5,5.5-14.3,0.1-19.8
		C62.5,523.8,53.6,523.9,48.1,529.3z"/>
	<path class="st0" d="M127.9,555.3l-39.1,39.1c-5.5,5.5-5.5,14.3-0.1,19.8c5.4,5.4,14.3,5.3,19.8-0.1l39.1-39.1
		c5.5-5.5,5.5-14.4,0.1-19.8C142.2,549.8,133.3,549.8,127.9,555.3z"/>
	<path class="st0" d="M339.3,555.3l-39.1,39.1c-5.5,5.5-5.5,14.3-0.1,19.8c5.4,5.4,14.3,5.3,19.7-0.1l39.1-39.1
		c5.5-5.5,5.5-14.4,0.1-19.8C353.6,549.8,344.7,549.8,339.3,555.3z"/>
	<path class="st0" d="M259.5,529.3l-91,91c-5.5,5.5-5.5,14.3-0.1,19.8c5.4,5.4,14.3,5.3,19.8-0.1l91-91c5.5-5.5,5.5-14.3,0.1-19.8
		C273.9,523.8,265,523.9,259.5,529.3z"/>
</g>
</svg>
