<?xml version="1.0" encoding="utf-8"?>
<!-- Generator: Adobe Illustrator 19.1.1, SVG Export Plug-In . SVG Version: 6.00 Build 0)  -->
<svg version="1.1" id="Layer_1" xmlns="http://www.w3.org/2000/svg" xmlns:xlink="http://www.w3.org/1999/xlink" x="0px" y="0px"
	 viewBox="-47 170.9 500 500" style="enable-background:new -47 170.9 500 500;" xml:space="preserve">
<style type="text/css">
	.st0{fill:#F9F9F9;}
</style>
<g>
	<path class="st0" d="M341.8,279.4c-12.4,0-24.7,2.1-36.5,6.2c-23.9-57.7-81.3-96.8-144.7-96.8c-79,0-145.5,59.4-155.3,136.8
		C-26.3,341-47,373.5-47,409.1c0,51.1,41.6,92.8,92.8,92.8H80v-28.5H45.8c-35.4,0-64.2-28.8-64.2-64.2c0-26.8,16.9-51,42.2-60.2
		l8.7-3.2l0.6-9.2c4.6-66.8,60.7-119.1,127.6-119.1c56.2,0,106.6,37.6,122.6,91.4l4.9,16.6l15.4-8c11.9-6.2,24.8-9.4,38.2-9.4
		c45.6,0,82.7,37.1,82.7,82.7c0,45.6-37.1,82.7-82.7,82.7h-24.2v28.5h24.2c61.3,0,111.2-49.9,111.2-111.2
		C453,329.3,403.1,279.4,341.8,279.4z"/>
	<polygon class="st0" points="276.3,468.1 196,468.1 216.2,395.4 205.4,395.4 151.1,395.4 117.5,516.6 176.8,516.7 144.8,652.9 	"/>
	<path class="st0" d="M24.6,554.4l-61.5,61.5c-5.5,5.5-5.6,14.6-0.1,20.1c5.5,5.5,14.5,5.4,20-0.1l61.5-61.5
		c5.6-5.5,5.6-14.6,0.1-20.1C39.1,548.8,30.1,548.9,24.6,554.4z"/>
	<path class="st0" d="M95.6,586.3l-24.5,24.5c-5.6,5.5-5.6,14.6-0.1,20.1c5.5,5.5,14.5,5.4,20-0.1l24.5-24.5
		c5.6-5.5,5.6-14.6,0.1-20.1C110.2,580.7,101.1,580.8,95.6,586.3z"/>
	<path class="st0" d="M295.4,556l-58.3,58.3c-5.5,5.5-5.6,14.6-0.1,20.1s14.5,5.4,20-0.1l58.3-58.3c5.5-5.5,5.6-14.6,0.1-20.1
		C310,550.4,301,550.5,295.4,556z"/>
	<path class="st0" d="M360,589.8l-24.5,24.5c-5.6,5.5-5.6,14.6-0.1,20.1c5.5,5.5,14.5,5.4,20.1-0.1l24.5-24.5
		c5.6-5.5,5.6-14.6,0.1-20.1C374.6,584.2,365.6,584.2,360,589.8z"/>
</g>
</svg>
