<?xml version="1.0" encoding="utf-8"?>
<!-- Generator: Adobe Illustrator 19.1.1, SVG Export Plug-In . SVG Version: 6.00 Build 0)  -->
<svg version="1.1" id="Layer_1" xmlns="http://www.w3.org/2000/svg" xmlns:xlink="http://www.w3.org/1999/xlink" x="0px" y="0px"
	 viewBox="-47 170.9 500 500" style="enable-background:new -47 170.9 500 500;" xml:space="preserve">
<style type="text/css">
	.st0{fill:#F9F9F9;}
</style>
<g>
	<circle class="st0" cx="50.1" cy="546.6" r="17.8"/>
	<path class="st0" d="M110,634.3c-9.8,0-17.8,7.9-17.8,17.8c0,9.8,7.9,17.8,17.8,17.8s17.8-7.9,17.8-17.8
		C127.8,642.2,119.9,634.3,110,634.3z"/>
	<path class="st0" d="M327.6,528.8c-9.8,0-17.8,7.9-17.8,17.8c0,9.8,7.9,17.8,17.8,17.8c9.8,0,17.8-7.9,17.8-17.8
		C345.4,536.7,337.3,528.8,327.6,528.8z"/>
	<path class="st0" d="M188.8,528.8c-9.8,0-17.8,7.9-17.8,17.8c0,9.8,7.9,17.8,17.8,17.8s17.8-7.9,17.8-17.8
		C206.6,536.8,198.7,528.8,188.8,528.8z"/>
	<circle class="st0" cx="257.7" cy="617.4" r="17.8"/>
	<path class="st0" d="M341.7,262.6c-12.4,0-24.7,2.2-36.4,6.1c-23.9-57.6-81.3-96.8-144.6-96.8c-79,0-145.5,59.5-155.2,136.8
		C-26.3,324.1-47,356.6-47,392.3c0,51.2,41.6,92.7,92.7,92.7h296c61.4,0,111.3-49.9,111.3-111.3C453,312.5,403.1,262.6,341.7,262.6z
		 M341.7,456.4h-296c-35.4,0-64.2-28.8-64.2-64.2c0-26.9,16.9-51,42.2-60.2l8.7-3.2l0.6-9.2c4.7-66.7,60.7-119,127.7-119
		c56.1,0,106.6,37.6,122.6,91.4l5,16.6l15.3-8.1c11.9-6.3,24.8-9.3,38.2-9.3c45.7,0,82.7,37.1,82.7,82.7
		C424.5,419.4,387.4,456.4,341.7,456.4z"/>
</g>
</svg>
